<?xml version="1.0" encoding="UTF-8" standalone="no"?><!-- Generator: Gravit.io --><svg xmlns="http://www.w3.org/2000/svg" xmlns:xlink="http://www.w3.org/1999/xlink" style="isolation:isolate" viewBox="749.53 450.666 117.94 124.663" width="117.94pt" height="124.663pt"><g><path d=" M 851.353 515.797 C 850.807 515.581 850.623 514.438 851.208 513.965 C 852.423 513.073 853.883 512.375 855.513 511.966 C 860.94 510.604 866.213 512.952 867.28 517.206 C 868.347 521.459 864.808 526.018 859.381 527.38 C 857.727 527.795 856.087 527.865 854.578 527.64 C 854.042 527.526 853.768 526.978 854.048 526.633 C 855.465 524.799 856.073 522.609 855.543 520.493 C 855.014 518.387 853.454 516.747 851.353 515.797 Z " fill="rgb(254,198,1)"/><g><path d=" M 853.453 538.989 C 856.29 545.42 858.084 554.897 858.084 565.457 C 858.084 568.28 857.956 571.025 857.714 573.655 C 857.626 574.511 856.949 575.303 855.562 575.329 L 836.707 575.329 C 835.896 575.258 835.641 574.878 835.651 574.351 C 835.218 569.241 834.064 564.142 832.188 559.056 C 831.705 556.757 832.051 555.507 833.647 554.246 C 840.028 549.388 844.649 544.267 847.509 538.883 C 848.638 536.715 852.39 536.579 853.453 538.989 Z " fill="rgb(234,115,23)"/><path d=" M 835.826 574.944 C 835.974 575.153 836.254 575.289 836.707 575.329 L 855.562 575.329 C 856.949 575.303 857.626 574.511 857.714 573.655 C 857.956 571.025 858.084 568.28 858.084 565.457 C 858.084 554.897 856.29 545.42 853.453 538.989 C 852.987 537.931 852.002 537.364 850.948 537.248 C 850.605 551.584 844.981 564.705 835.826 574.944 Z " fill="rgb(254,198,1)"/></g><g><path d=" M 759.675 575.243 C 807.58 568.714 837.74 553.143 850.156 528.531 C 850.872 527.112 850.025 525.588 847.736 526.855 C 835.966 533.376 820.49 537.173 801.309 538.248 C 798.237 538.414 795.632 540.016 793.818 541.612 L 758.98 573.199 C 757.228 574.9 757.465 575.586 759.675 575.243 Z " fill="rgb(254,198,1)"/><path d=" M 849.617 526.426 C 850.473 526.617 850.679 527.596 850.207 528.531 C 837.792 553.143 807.632 568.714 759.727 575.243 C 758.334 575.459 757.725 575.267 757.919 574.661 C 799.69 564.946 833.527 546.519 849.617 526.426 Z " fill="rgb(234,115,23)"/></g><g><path d=" M 808.708 514.282 L 765.855 488.281 C 763.763 486.843 763.485 485.005 765.003 482.75 L 777.611 467.385 C 778.899 465.733 780.439 465.54 782.214 466.789 L 822.14 500.8 C 823.562 501.958 825.329 502.542 827.425 502.537 L 836.387 502.537 C 839.211 502.6 840.273 503.627 841.311 505.337 L 850.706 520.041 C 851.611 521.732 851.301 522.716 849.884 523.473 C 837.595 529.794 822.916 532.556 805.848 531.758 C 803.788 531.675 802.78 530.587 802.808 528.478 L 802.808 516.44 C 802.773 515.17 803.35 514.636 804.523 514.822 L 807.57 515.228 C 809.889 515.581 810.274 515.271 808.708 514.282 Z " fill="rgb(254,198,1)"/><path d=" M 839.962 503.656 C 840.49 504.095 840.902 504.663 841.311 505.337 L 850.706 520.041 C 851.611 521.732 851.301 522.716 849.884 523.473 C 837.595 529.794 822.916 532.556 805.848 531.758 C 805.192 531.732 804.642 531.603 804.197 531.374 C 820.463 526.487 833.479 516.382 839.962 503.656 Z " fill="rgb(234,115,23)"/></g><path d=" M 769.158 464.452 C 769.4 463.816 774.189 460.462 771.025 454.588 C 768.574 450.777 762.766 449.496 757.325 451.849 C 746.532 457.168 747.697 475.115 756.229 478.152 C 760.035 479.537 764.853 478.642 769.158 474.321 C 772.586 470.75 774.491 466.46 772.121 465.548 C 771.021 464.493 771.729 462.623 769.158 464.452 Z " fill="rgb(254,198,1)"/><g><path d=" M 857.606 486.92 L 837.888 467.722 C 837.189 466.987 836.797 466.185 836.678 465.282 L 836.363 461.192 C 836.306 460.232 835.239 460.236 833.891 461.474 C 833.323 462.048 833.03 462.685 832.947 463.318 L 832.947 464.906 C 832.953 465.813 832.644 466.705 831.987 467.549 C 819.049 479.741 813.55 484.762 812.671 485.824 C 811.674 486.941 811.378 487.532 811.141 488.022 C 811.002 488.536 811.416 488.966 812.503 488.244 C 815.991 485.961 822.681 484.728 830.755 484.728 C 842.55 484.728 852.126 488.288 852.126 492.673 C 852.126 496.564 844.589 499.806 834.647 500.482 C 834.024 500.524 834.005 500.617 834.643 500.619 C 834.717 500.619 834.791 500.619 834.865 500.619 C 848.626 500.619 859.798 496.322 859.798 491.029 C 859.798 489.939 859.435 488.594 857.606 486.92 Z " fill="rgb(234,115,23)"/><path d=" M 856.757 486.093 L 837.888 467.722 C 837.189 466.987 836.796 466.185 836.678 465.282 L 836.363 461.192 C 836.305 460.232 835.239 460.236 833.89 461.474 C 833.322 462.048 833.029 462.685 832.946 463.318 L 832.946 464.906 C 832.952 465.813 832.643 466.705 831.986 467.549 C 819.048 479.741 813.549 484.762 812.671 485.824 C 811.673 486.941 811.377 487.532 811.141 488.022 C 811.109 488.139 811.106 488.251 811.136 488.344 C 815.764 484.466 824.476 481.973 834.48 481.329 C 844.383 480.691 852.375 482.51 856.757 486.093 Z  M 859.345 489.116 C 859.143 488.693 858.846 488.24 858.425 487.756 C 858.778 488.19 859.086 488.643 859.345 489.116 Z " fill-rule="evenodd" fill="rgb(254,198,1)"/></g></g></svg>